<svg xmlns="http://www.w3.org/2000/svg" width="122" height="40" fill="none"><path fill="#fff" d="m12 20-7 7v9H0V0h5v20L25 0h5L15 16l17 20h-6L12 20ZM69 33l2-4c2 2 6 3 9 3 5 0 7-1 7-4 0-6-17 0-17-11 0-5 4-9 11-9 4 0 8 1 10 3l-2 4c-3-2-5-2-8-2-4 0-6 1-6 3 0 7 17 2 17 12 0 5-5 8-12 8-4 0-9-1-11-3ZM122 20v16h-5v-4c-1 3-4 4-9 4-6 0-10-3-10-8 0-4 3-8 11-8h8v-1c0-4-2-6-7-6-3 0-7 1-9 3l-2-4c3-2 7-4 11-4 8 0 12 4 12 12Zm-5 8v-4h-7c-5 0-7 2-7 4 0 3 2 4 6 4 4 1 7-1 8-4ZM53 29v7l3-2v-7l-3 2Z"/><path fill="#fff" d="m62 20-13-7-7-5-7 13v11l13 7h1V28l6-10 5 3v11l2-1V20Z"/></svg>