<svg xmlns="http://www.w3.org/2000/svg" width="211" height="68" fill="none"><path fill="#FF6060" d="M21 35 9 46v16H1V0h8v35L43 0h10L27 28l28 34H45L21 35ZM119 57l4-6c4 2 10 4 16 4 8 0 11-2 11-6 0-11-29-2-29-20 0-9 7-14 19-14 6 0 13 1 17 4l-3 7c-5-3-9-4-14-4-7 0-11 3-11 6 0 11 30 2 30 21 0 8-8 14-21 14-7 0-15-3-19-6ZM211 34v28h-8v-6c-3 4-8 7-16 7-10 0-17-6-17-14s5-14 19-14h13v-2c0-7-4-11-12-11-6 0-12 2-15 5l-4-6c5-4 12-7 20-7 13 1 20 7 20 20Zm-9 14v-7h-13c-8 0-11 3-11 7 0 5 4 8 11 8 6 0 11-3 13-8ZM92 50v12l5-3V47l-5 3Z"/><path fill="#FF6060" d="M107 34 85 22l-12-7-12 21v19l22 13 2-1V48l10-17 10 6v18l2-1V34Z"/></svg>